# xmcd
#
# Track frame offsets:
#	150
#	16033
#	31684
#	45627
#	59992
#	71099
#	93423
#	109714
#	128797
#	142583
#	158564
#	173265
#
# Disc length: 2488 seconds
#
# Revision: 0
# Processed by: cddbd v1.5.2PL0 Copyright (c) Steve Scherf et al.
# Submitted via: audiograbber 1.83.01
#
DISCID=8d09b60c
DTITLE=Stefan George - Blue House
DYEAR=2007
DGENRE=Americana
TTITLE0=Darkness
TTITLE1=Blue House
TTITLE2=Perfect Day
TTITLE3=City Streets
TTITLE4=Kale Water
TTITLE5=Whyskey Row
TTITLE6=Two Dollar Bill
TTITLE7=Drifting Too Far
TTITLE8=Lifes True Gold
TTITLE9=Bring Me Flowers
TTITLE10=God Willing
TTITLE11=Long Way Home
EXTD=
EXTT0=
EXTT1=
EXTT2=
EXTT3=
EXTT4=
EXTT5=
EXTT6=
EXTT7=
EXTT8=
EXTT9=
EXTT10=
EXTT11=
PLAYORDER=
